# xmcd
#
# Track frame offsets:
#	150
#	15479
#	29235
#	47650
#	63572
#	76515
#	90982
#	104189
#	120804
#	138380
#	150891
#	165228
#	180072
#
# Disc length: 2470 seconds
#
# Revision: 0
# Processed by: cddbd v1.5.2PL0 Copyright (c) Steve Scherf et al.
# Submitted via: dBpowerAMP V4.0
#
DISCID=8909a40d
DTITLE=Barra da Saia - Barra da Saia
DYEAR=2006
DGENRE=Country
TTITLE0=Seu DJ
TTITLE1=Sorriso Mudo
TTITLE2=Não Precisa ser Assim
TTITLE3=Sou tua Namorada
TTITLE4=Chora Sanfona
TTITLE5=Amora
TTITLE6=Morrendo de Saudade
TTITLE7=Vem Ficar
TTITLE8=Vontade Doida
TTITLE9=Apaixonada
TTITLE10=Te Amo Todo Dia
TTITLE11=Me dá uma Chance
TTITLE12=Lobo Selvagem (Oração)
EXTD=BARRA DA SAIA - www.barradasaia.com.br - Posted by Jaime
EXTT0=
EXTT1=
EXTT2=
EXTT3=
EXTT4=
EXTT5=
EXTT6=
EXTT7=
EXTT8=
EXTT9=
EXTT10=
EXTT11=
EXTT12=
PLAYORDER=
